<svg id="Layer_1" enable-background="new 0 0 511.992 511.992" height="512" viewBox="0 0 511.992 511.992" width="512" xmlns="http://www.w3.org/2000/svg"><path d="m490.927 412.007-5.369-108.146c-.607-12.227-9.845-22.212-21.967-23.742-42.11-5.324-75.589 16.071-97.296 36.579v-89.225c0-23.259-18.932-42.181-42.203-42.181h-158.133c-3.509-17.257-9.063-47.797-5.068-61.486 10.709-2.526 19.764-9.153 25.77-14.642 12.056-11.017 22.652 14.362 46.141 4.643 8.789-3.637 15.729-11.609 17.294-22.178 4.315-29.14-.218-51.787-13.111-65.495-25.203-26.799-52.989-28.251-71.858-24.75-33.508 6.216-61.005 31.594-67.203 46.76-4.648 11.376-2.929 25.699-.669 35.712.515 2.282.217 4.713-.838 6.846-14.758 29.8-23.415 62.054-27.83 94.591h-5.387c-23.271 0-42.203 18.922-42.203 42.181v242.339c0 23.259 18.932 42.182 42.203 42.182h260.892c20.666 0 37.898-14.928 41.5-34.559 28.989-2.169 55.382-4.929 76.289-7.412 28.947-3.441 50.491-28.923 49.046-58.017zm-380.172-314.207c2.681-5.412 3.429-11.616 2.108-17.469-2.444-10.826-2.491-20.353-.127-26.137 7.153-17.506 66.962-65.619 112.594-17.101 11.902 12.655 11.43 35.366 8.939 52.19-1.252 8.459-10.379 13.185-17.982 9.322l-10.474-5.322c-9.8-4.98-21.834-3.346-29.945 4.068-16.957 15.493-23.551 8.036-27.663 15.451-7.592 13.69-5.176 38.86 1.45 72.487-15.112 0-49.741 0-64.967 0 4.604-32.475 13.303-61.715 26.067-87.489zm-3.512 103.491h18.097c-3.165 38.409-6.643 121.586 16.8 152.214 7.015 9.163 4.861 15.357.106 26.41-1.277 2.972-3.319 8.815-6.541 9.063-2.721.224-5.751-3.032-5.417-3.032-20.827-34.213-23.133-144.347-23.045-184.655zm216.849 294.701h-260.892c-14.448 0-26.203-11.745-26.203-26.182v-242.338c0-14.437 11.755-26.181 26.203-26.181h3.559c-9.86 104.351 19.815 193.03 29.887 235.231 5.716 17.726 21.335 23.449 21.235 23.378 59.27 25.743 166.678 22.809 230.89 18.701-3.624 10.125-13.317 17.391-24.679 17.391zm26.203-80.941h-135.689c-4.354 0-7.909 3.482-7.999 7.835-.144 7.001-5.958 12.697-12.961 12.697-11.882 0-17.499-14.668-8.652-22.604 3.539-3.175 3.545-8.73 0-11.91-8.852-7.94-3.221-22.605 8.652-22.605 7.002 0 12.817 5.696 12.961 12.698.09 4.353 3.645 7.835 7.999 7.835h135.689zm0-81.265c-4.519 4.919-12.408 4.812-16.537-.549-10.343-13.429-22.667-22.988-36.63-28.413-4.12-1.603-8.755.441-10.354 4.56-1.6 4.119.441 8.755 4.56 10.354 11.204 4.353 21.212 12.179 29.749 23.263 7.063 9.17 18.82 12.392 29.212 9.135v30.86h-128.953c-3.653-11.844-14.769-20.533-27.696-20.533-22.896 0-36.681 25.391-24.4 44.561-12.245 19.113 1.452 44.56 24.4 44.56 12.927 0 24.042-8.689 27.696-20.532h128.953v31.362c-60.295 3.923-150.546 6.248-208.211-10.807-16.8-4.969-26.514-8.544-30.211-19.995-22.138-68.416-36.278-156.332-29.042-230.32h8.412c-.093 43.977 2.208 154.915 25.378 192.974 3.87 6.358 11.989 11.311 20.308 10.666 4.714-.361 13.42-2.888 18.761-15.744 5.617-13.521 12.701-27.713-.845-45.407-20.03-26.168-16.203-109.646-13.441-142.488h11.565c9.53 44.19 23.184 95.506 23.642 127.952.188 13.313 15.902 20.224 25.839 11.379 9.893-8.804 20.771-15.426 32.331-19.682 4.146-1.526 6.27-6.125 4.744-10.271s-6.124-6.269-10.271-4.744c-13.141 4.838-25.468 12.255-36.663 22.059-.726-33.632-13.796-83.42-23.248-126.692h154.749c14.448 0 26.203 11.744 26.203 26.181zm89.698 120.347c-18.625 2.212-44.434 4.953-73.698 7.157 0-20.798 0-90.284 0-121.578 36.155-41.374 71.613-46.709 95.292-43.721 4.409.558 7.77 4.2 7.991 8.662l5.369 108.146c1.029 20.729-14.324 38.884-34.954 41.334z"/><circle cx="262.626" cy="307.972" r="8"/></svg>