<svg id="Layer_1" height="512" viewBox="0 0 512 512" width="512" xmlns="http://www.w3.org/2000/svg" data-name="Layer 1"><path d="m448.838 32.146-124.322-.565a40.67 40.67 0 0 0 -36.223-22.581h-.186a40.663 40.663 0 0 0 -36.207 22.251l-124.35-.564h-.119a25.68 25.68 0 0 0 -25.677 25.566l-1.017 245.992-59.213 29a7 7 0 0 0 -3.921 6.287v73.432c0 19.789 12.817 44.03 29.178 55.188l52.246 35.632a7 7 0 0 0 7.888 0l45.425-30.984 274.5 1.246h.118a25.709 25.709 0 0 0 25.678-25.563l1.764-388.541a25.679 25.679 0 0 0 -25.564-25.8zm-160.73-9.146h.122a26.623 26.623 0 0 1 26.5 26.745l-.076 16.812a7 7 0 0 0 6.968 7.031l54.644.248-.141 30.832-176.534-.8.065-14.4v-.007l.075-16.423 54.643.249h.033a7 7 0 0 0 7-6.968l.077-16.814a26.653 26.653 0 0 1 26.624-26.505zm101.992 88.732.065-14.407 24.4.111a2.34 2.34 0 0 1 2.33 2.35l-1.149 253-28.787-.129h-.119a25.709 25.709 0 0 0 -25.677 25.562l-.127 28-152.695-.6v-67.978a7 7 0 0 0 -3.914-6.283l-46.3-22.741.76-210a2.34 2.34 0 0 1 2.339-2.331h.011l24.4.111-.066 14.407a7 7 0 0 0 6.969 7.031l190.534.865h.032a7 7 0 0 0 6.994-6.968zm15.91 255.009-30.94 30.659.087-19.119a11.692 11.692 0 0 1 11.679-11.627h.054zm-290.261-310.426a11.6 11.6 0 0 1 3.459-8.244 11.47 11.47 0 0 1 8.274-3.384l120.241.545a40.867 40.867 0 0 0 -.237 4.207l-.045 9.812-54.641-.251h-.031a7 7 0 0 0 -7 6.969l-.078 16.431-24.4-.111a16.341 16.341 0 0 0 -16.411 16.27l-.735 203.194-18.093-8.886a7 7 0 0 0 -6.165 0l-5.127 2.51zm7.217 431.213-48.3-32.943c-12.5-8.526-23.066-28.5-23.066-43.621v-69.064l71.364-34.951 23.617 11.6a6.972 6.972 0 0 0 3.08 1.513l44.674 21.938v68.963c0 15.119-10.564 35.1-23.067 43.621zm335.672-41.11a11.692 11.692 0 0 1 -11.679 11.628h-.054l-257.394-1.168c9.073-10.235 15.88-24.145 18.068-37.271l156.771.618h.087a18.285 18.285 0 0 0 2.113-.134 7.1 7.1 0 0 0 1.416.151h.034a6.972 6.972 0 0 0 5.084-2.2 18.278 18.278 0 0 0 4.167-3.09l47.087-46.663a18.09 18.09 0 0 0 5.392-12.849l1.16-255.588a16.342 16.342 0 0 0 -16.266-16.415l-24.4-.111.076-16.426a7 7 0 0 0 -6.968-7.033l-54.644-.248.045-9.811a41.414 41.414 0 0 0 -.2-4.21l120.241.547a11.678 11.678 0 0 1 11.626 11.732z"/><path d="m192.263 176.844 36.393.166h.032a7 7 0 0 0 .031-14l-36.393-.166h-.032a7 7 0 0 0 -.031 14z"/><path d="m191.941 227.2 26.555.472h.127a7 7 0 0 0 .122-14l-26.555-.472a7 7 0 0 0 -.249 14z"/><path d="m382.417 267.569-22.455-.19a7 7 0 0 0 -.118 14l22.454.19h.061a7 7 0 0 0 .058-14z"/><path d="m226.881 267.128a7 7 0 0 0 -.01 14l111.716.155h.01a7 7 0 0 0 .01-14l-111.716-.155z"/><path d="m206.07 280.99a7 7 0 0 0 .138-14l-14.245-.286a7 7 0 0 0 -.28 14l14.244.286z"/><path d="m382.165 317.016-117.973-.536h-.033a7 7 0 0 0 -.031 14l117.973.536h.032a7 7 0 0 0 .032-14z"/><path d="m242.885 316.383-32.113-.145h-.032a7 7 0 0 0 -.032 14l32.114.145h.032a7 7 0 0 0 .031-14z"/><path d="m151.236 371.747-37.757 36.864-18.779-18.337a7 7 0 1 0 -9.78 10.017l23.668 23.109a7 7 0 0 0 9.781 0l42.648-41.638a7 7 0 0 0 -9.781-10.018z"/><path d="m319.335 126.678a6.806 6.806 0 0 0 -.895-.063c-1.356-.083-2.719-.141-4.1-.141a64.831 64.831 0 0 0 -64.752 58.39 21.528 21.528 0 0 0 8.618 39.675 65.114 65.114 0 0 0 112.266.006 21.531 21.531 0 0 0 8.611-39.718 64.789 64.789 0 0 0 -59.748-58.149zm48.5 84.028a6.783 6.783 0 0 1 -.772-.043 7.012 7.012 0 0 0 -7.039 3.813 51.11 51.11 0 0 1 -91.353.007 7 7 0 0 0 -6.976-3.821 7.521 7.521 0 0 1 -3.186-14.611 7 7 0 0 0 4.78-6.386 50.856 50.856 0 0 1 29.961-44.682 22.278 22.278 0 0 0 2.233 16.773 23.6 23.6 0 0 0 20.457 12.454 21.881 21.881 0 0 0 2.407-.132 16.179 16.179 0 0 0 11.824-7.4 17.041 17.041 0 0 0 1.927-14.567 15.237 15.237 0 0 0 -8.584-9.585 7 7 0 1 0 -5.413 12.91 1.621 1.621 0 0 1 .684 1.007 3.137 3.137 0 0 1 -.376 2.641 2.215 2.215 0 0 1 -1.594 1.081c-4.311.483-7.595-2.506-9.095-5.206-.822-1.478-2.439-5.294.287-8.761a15.161 15.161 0 0 1 10.54-5.538 50.861 50.861 0 0 1 46.847 48.992 7 7 0 0 0 4.807 6.393 7.523 7.523 0 0 1 -2.367 14.664z"/><path d="m290.646 188.66a9.905 9.905 0 1 0 -9.905 9.905 9.916 9.916 0 0 0 9.905-9.905zm-9.905 4.1a4.1 4.1 0 1 1 4.1-4.1 4.1 4.1 0 0 1 -4.1 4.096z"/><path d="m347.993 178.756a9.9 9.9 0 1 0 9.9 9.9 9.916 9.916 0 0 0 -9.9-9.9zm0 14a4.1 4.1 0 1 1 4.1-4.1 4.1 4.1 0 0 1 -4.1 4.1z"/><path d="m334.972 204.6a7 7 0 0 0 -7 7 13.913 13.913 0 1 1 -27.826 0 7 7 0 0 0 -14 0 27.913 27.913 0 1 0 55.826 0 7 7 0 0 0 -7-7z"/></svg>